<svg id="Capa_1" enable-background="new 0 0 512 512" height="512" viewBox="0 0 512 512" width="512" xmlns="http://www.w3.org/2000/svg"><g><g><g><path d="m155.924 151h-30v-87.266l30-10z" fill="#d3e0e4"/></g><g><path d="m386.076 151h-30v-97.266l30 10z" fill="#abc4c9"/></g><g><path d="m266 322.075-41.867-180.797h-143.566l-80.567 80.567v209.588l80.567 80.567h143.566z" fill="#09607d"/><g fill="#ffe477"><path d="m80.567 189.978v-48.7h-48.7c-17.6 0-31.867 14.267-31.867 31.867v48.7h48.7c17.6 0 31.867-14.267 31.867-31.867z"/><path d="m48.7 431.433h-48.7v48.7c0 17.599 14.267 31.867 31.867 31.867h48.7v-48.7c0-17.6-14.267-31.867-31.867-31.867z"/></g></g><g><path d="m431.433 141.278h-143.566l-31.867 10v350.722l31.867 10h143.566l80.567-80.567v-209.588z" fill="#07485e"/><g fill="#ffcd00"><path d="m431.433 463.3v48.7h48.7c17.6 0 31.867-14.268 31.867-31.867v-48.7h-48.7c-17.6 0-31.867 14.267-31.867 31.867z"/><path d="m463.3 221.845h48.7v-48.7c0-17.6-14.267-31.867-31.867-31.867h-48.7v48.7c0 17.6 14.267 31.867 31.867 31.867z"/></g></g></g><g><path d="m224.133 141.278v370.722h31.867l10-189.925-10-180.797z" fill="#00cc76"/><path d="m256 141.278h31.867v370.722h-31.867z" fill="#009986"/></g><g><path d="m125.924 0v63.734h130.076l20-31.867-20-31.867z" fill="#09607d"/><path d="m256 0h130.076v63.734h-130.076z" fill="#07485e"/></g></g></svg>